<svg width="302" height="239" viewBox="0 0 302 239" fill="none" xmlns="http://www.w3.org/2000/svg">
<path d="M37.2671 1L42.4041 2.63873L40.6232 8.98878L41.9246 8.95463L44.4931 13.1538L51.4452 11.0372L62.7808 15.9192L79.6644 13.0856L90.8973 5.64304L103.637 15.7485L110.452 12.3345L112.507 18.4114L119.973 16.5678L123.98 10.7982L130.212 19.0942L132.678 16.5678L141.925 19.4015L141.103 22.2009L144.767 20.5964L151 25.5808L149.082 28.0389L155.041 29.4386L157.918 24.1128L162.336 33.7403L169.356 27.5609L183.74 37.803L194.288 30.0532L200.486 35.7545L217.13 31.1798L219.801 35.5838L222.849 31.1798L231.034 32.5454L231.514 25.6832L241.24 28.0389L248.637 40.1245L245.315 48.2839L257.233 56.853L259.116 64.0908L264.836 61.974L268.26 70.7139L273.74 66.344L275.932 78.4637L284.836 80.9559L287.027 85.8379L290.452 82.6971L290.726 90.8906L278.808 92.0173L284.493 95.9434L277.541 102.771L288.021 107.107L285.589 129.093L297.404 126.704L295.418 129.571L301 133.054L292.747 135.58L294.493 138.755L287.507 142.886L289.801 149.031L279.219 151.967L283.671 159.956L275.932 162.243L280.418 181.396L274.938 179.313L273.363 185.185L269.253 185.732L241.514 185.117L236.24 190.17L228.26 187.951L223.706 199.49L228.26 211.234L222.164 220.315L212.644 225.3L212.61 229.602L202.541 231.07L195.897 236.634L192.986 228.407L187.849 231.65L184.082 228.816L186.616 233.357L179.699 238L158.911 234.279L142.473 237.898L148.089 229.26L152.986 228.748L152.918 216.321L139.63 209.152L136.856 197.271L130.418 198.944L125.966 193.584L122.575 196.588L121.822 197.988L114.219 200.924L114.288 193.823L108.226 191.228L105.144 198.193L100.932 197.203L102.61 200.924L75.452 203.143L73.3631 198.5L77.6781 187.234L76.1712 179.143L69.1164 178.187L69.4589 167.33L60.863 170.881L51.1712 165.282L47.5068 155.347L49.1164 146.744L38.0206 141.725L38.8767 133.736L31.9247 133.805L22.8493 122.914L24.2876 117.827L19.2877 114.823L26.3767 105.4L19.9384 102.328L22.3356 85.4966L14.8698 78.8734L17.3356 74.5376L8.53419 63.7835L7.30136 58.0138L11.0685 55.5558L4.15063 56.1361L5.315 47.9084L1 39.4075L6.71912 40.022L9.73284 32.5112L11.274 35.9935H12.0274L25.726 32.5112L37.2671 1Z" fill="#CCCCCC" stroke="white" stroke-width="0.5"/>
</svg>
