<?xml version="1.0" encoding="utf-8"?>
<!-- Generator: Adobe Illustrator 24.0.2, SVG Export Plug-In . SVG Version: 6.00 Build 0)  -->
<svg version="1.1" id="Calque_1" xmlns="http://www.w3.org/2000/svg" xmlns:xlink="http://www.w3.org/1999/xlink" x="0px" y="0px"
	 viewBox="0 0 200 200" style="enable-background:new 0 0 200 200;" xml:space="preserve">
<style type="text/css">
	.st0{fill:#C10B25;}
</style>
<g>
	<g>
		<path class="st0" d="M35.34,102.05c-0.03-1,0.77-1.85,1.77-1.88c1-0.03,1.84,0.77,1.87,1.77c0.03,1-0.76,1.84-1.76,1.87
			C36.22,103.84,35.37,103.05,35.34,102.05z"/>
		<path class="st0" d="M33.74,95.12l0.06-0.66l6.54,0.61l0.25-2.67l0.62,0.06l-0.31,3.33L33.74,95.12z"/>
		<path class="st0" d="M34.32,90.04l0.11-0.71l2.11,1.07l-0.08,0.54L34.32,90.04z"/>
		<path class="st0" d="M34.75,87.48l0.69-3.21l0.6,0.13l-0.55,2.56L38,87.5l0.52-2.43l0.6,0.13l-0.52,2.43l2.71,0.59l0.57-2.67
			l0.6,0.13L41.77,89L34.75,87.48z"/>
		<path class="st0" d="M39.7,81.7l-3.91,1.14l0.23-0.74l3.33-0.94l-2.21-2.67l0.22-0.71l2.59,3.16l4.33-1.21l-0.24,0.77l-3.73,0.98
			l2.5,2.99l-0.22,0.72L39.7,81.7z"/>
		<path class="st0" d="M40.48,72.32c-0.38,0.3-0.69,0.82-0.87,1.25c-0.68,1.6,0.15,3.01,1.78,3.71c1.67,0.71,3.22,0.34,3.91-1.28
			c0.17-0.4,0.38-1.05,0.3-1.5l0.58,0.21c0.08,0.43-0.15,1.14-0.32,1.53c-0.83,1.94-2.7,2.52-4.74,1.65
			c-2.01-0.85-2.91-2.65-2.09-4.56c0.15-0.36,0.53-1.07,0.85-1.31L40.48,72.32z"/>
		<path class="st0" d="M40.78,69.89l1.56-2.89l0.54,0.29l-1.24,2.3l2.26,1.22l1.18-2.19l0.54,0.29l-1.18,2.19l2.44,1.31l1.3-2.4
			l0.54,0.29l-1.61,2.99L40.78,69.89z"/>
		<path class="st0" d="M43.37,65.31l0.36-0.56l5.52,3.55l1.45-2.25l0.52,0.33l-1.81,2.81L43.37,65.31z"/>
		<path class="st0" d="M45.94,61.43l0.4-0.53l5.26,3.93l1.6-2.15l0.49,0.37l-2,2.68L45.94,61.43z"/>
		<path class="st0" d="M48.84,57.65l2.15-2.47l0.47,0.41l-1.71,1.97l1.93,1.68l1.63-1.87l0.47,0.4l-1.63,1.87l2.09,1.82l1.79-2.06
			l0.47,0.41l-2.22,2.55L48.84,57.65z"/>
		<path class="st0" d="M52.32,53.73l0.6-0.58l6.83,2.23l0.01-0.01l-4.37-4.58l0.48-0.46l4.97,5.2l-0.64,0.62l-6.7-2.18l-0.01,0.01
			l4.29,4.49l-0.48,0.46L52.32,53.73z"/>
		<path class="st0" d="M61.62,46.77c-0.48,0.07-1,0.38-1.37,0.67c-1.37,1.06-1.34,2.71-0.25,4.11c1.11,1.43,2.65,1.87,4.04,0.79
			c0.35-0.27,0.84-0.73,0.99-1.16l0.41,0.47c-0.14,0.41-0.69,0.93-1.02,1.18c-1.67,1.29-3.58,0.89-4.94-0.88
			c-1.34-1.73-1.25-3.74,0.39-5.01c0.31-0.24,0.98-0.67,1.38-0.73L61.62,46.77z"/>
		<path class="st0" d="M63.02,44.85l2.76-1.76l0.33,0.52l-2.21,1.41l1.38,2.16l2.09-1.33l0.33,0.52l-2.09,1.33l1.49,2.33l2.3-1.47
			l0.33,0.52l-2.86,1.82L63.02,44.85z"/>
		<path class="st0" d="M70.12,40.66l1.51-0.69c2.17-1,3.65-0.05,4.53,1.86c1.09,2.37,0.03,3.96-1.98,4.88l-1.06,0.49L70.12,40.66z
			 M73.46,46.36l0.5-0.23c1.72-0.79,2.5-2.06,1.58-4.06c-0.91-2-2.32-2.15-3.68-1.53l-0.88,0.4L73.46,46.36z"/>
		<path class="st0" d="M76.52,37.89l3.09-1.08l0.2,0.58l-2.47,0.86l0.85,2.42l2.34-0.82l0.2,0.58l-2.34,0.82l0.92,2.61l2.57-0.9
			l0.2,0.58l-3.2,1.12L76.52,37.89z"/>
		<path class="st0" d="M82.94,42.33c0.45,0.16,0.93,0.19,1.53,0.03c0.8-0.21,1.34-0.82,1.08-1.81c-0.36-1.37-3.36-0.75-3.84-2.58
			c-0.29-1.12,0.43-2.05,1.57-2.35c0.31-0.08,0.84-0.17,1.33-0.11l0.06,0.66c-0.33-0.09-0.81-0.06-1.24,0.05
			c-0.67,0.18-1.32,0.67-1.08,1.57c0.37,1.4,3.33,0.62,3.86,2.66c0.37,1.41-0.61,2.26-1.6,2.52c-0.63,0.17-1.16,0.16-1.54,0.09
			L82.94,42.33z"/>
		<path class="st0" d="M90.15,40.69c0.42,0.21,0.9,0.31,1.52,0.22c0.82-0.11,1.43-0.65,1.3-1.66c-0.19-1.4-3.25-1.17-3.5-3.03
			c-0.15-1.14,0.68-1.98,1.85-2.14c0.32-0.04,0.85-0.06,1.33,0.06l-0.02,0.66c-0.32-0.13-0.79-0.16-1.24-0.1
			c-0.68,0.09-1.39,0.5-1.27,1.42c0.19,1.43,3.23,1.03,3.51,3.12c0.19,1.44-0.88,2.17-1.9,2.3c-0.65,0.09-1.17,0.01-1.54-0.11
			L90.15,40.69z"/>
		<path class="st0" d="M96.81,33.72l0.75-0.03l2.95,7.06l-0.69,0.03l-0.8-1.89l-3.37,0.14l-0.64,1.95l-0.64,0.03L96.81,33.72z
			 M97.17,34.38l-1.29,4.02l2.9-0.12L97.17,34.38z"/>
		<path class="st0" d="M103.72,40.95l-0.71-0.04l-2.09-7.32l0.7,0.04l1.79,6.59l2.59-6.34l0.65,0.04L103.72,40.95z"/>
		<path class="st0" d="M110.75,34.39c1.98,0.32,2.63,2.22,2.3,4.14c-0.37,2.17-1.6,3.51-3.5,3.2s-2.64-1.96-2.3-4.14
			C107.55,35.66,108.77,34.07,110.75,34.39z M107.91,37.69c-0.24,1.5,0.2,3.17,1.75,3.42c1.55,0.25,2.5-1.19,2.75-2.69
			c0.24-1.5-0.2-3.17-1.75-3.42C109.1,34.75,108.15,36.19,107.91,37.69z"/>
		<path class="st0" d="M115.29,35.41l0.64,0.15l-1.69,6.99l-0.64-0.16L115.29,35.41z"/>
		<path class="st0" d="M117.83,36.04l1.65,0.51c1.14,0.35,1.72,1.1,1.33,2.36c-0.27,0.89-1.09,1.28-1.91,1.15l-0.01,0.02
			c0.49,0.23,0.51,0.56,0.57,1.08l0.27,3l-0.7-0.21l-0.21-2.61c-0.09-1-0.36-1.11-0.96-1.3l-0.52-0.16l-1,3.24l-0.63-0.19
			L117.83,36.04z M117.52,39.28l0.67,0.21c0.74,0.23,1.69,0.19,1.98-0.77c0.35-1.12-0.37-1.42-1.24-1.69l-0.65-0.2L117.52,39.28z"/>
		<path class="st0" d="M121.39,41.47l2.24,0.87L123.37,43l-2.24-0.87L121.39,41.47z"/>
		<path class="st0" d="M126.49,39.14l2.89,1.33l-0.26,0.56l-2.29-1.05l-1.07,2.33l2.18,1l-0.26,0.56l-2.18-1l-1.42,3.08l-0.6-0.28
			L126.49,39.14z"/>
		<path class="st0" d="M132.65,42.23l0.65,0.37l-1.28,7.56l-0.6-0.34l0.34-2.03l-2.93-1.68l-1.58,1.31l-0.56-0.32L132.65,42.23z
			 M132.6,42.98l-3.24,2.72l2.52,1.45L132.6,42.98z"/>
		<path class="st0" d="M136.61,44.66l0.55,0.37l-4,5.97l-0.55-0.37L136.61,44.66z"/>
		<path class="st0" d="M139.28,46.5l1.36,1.06c0.94,0.73,1.21,1.63,0.4,2.67c-0.57,0.73-1.47,0.81-2.19,0.4l-0.01,0.02
			c0.38,0.39,0.28,0.7,0.15,1.21l-0.81,2.89l-0.57-0.45l0.73-2.51c0.27-0.97,0.06-1.17-0.44-1.55l-0.43-0.33l-2.08,2.67l-0.52-0.4
			L139.28,46.5z M137.85,49.42l0.55,0.43c0.61,0.48,1.51,0.77,2.12-0.02c0.72-0.93,0.15-1.46-0.56-2.02l-0.54-0.42L137.85,49.42z"/>
		<path class="st0" d="M143.78,50.13l2.41,2.22l-0.42,0.45l-1.92-1.77l-1.74,1.89l1.82,1.68l-0.42,0.45l-1.82-1.68l-1.88,2.04
			l2.01,1.85l-0.42,0.45l-2.5-2.3L143.78,50.13z"/>
		<path class="st0" d="M149.51,55.83l2.07,2.42l-0.47,0.4l-1.64-1.92l-1.95,1.67l1.56,1.83l-0.47,0.4l-1.56-1.83l-2.57,2.2
			l-0.43-0.5L149.51,55.83z"/>
		<path class="st0" d="M152.58,59.51l1.01,1.39c0.7,0.96,0.71,1.91-0.35,2.68c-0.75,0.55-1.64,0.38-2.21-0.22l-0.02,0.01
			c0.26,0.48,0.08,0.75-0.19,1.21l-1.58,2.56l-0.43-0.59l1.39-2.21c0.52-0.86,0.38-1.11,0.01-1.62l-0.32-0.44l-2.74,1.99l-0.39-0.53
			L152.58,59.51z M150.4,61.92l0.41,0.57c0.46,0.63,1.24,1.16,2.04,0.57c0.95-0.69,0.55-1.36,0.02-2.1l-0.4-0.55L150.4,61.92z"/>
		<path class="st0" d="M157,66.05l0.38,0.64l-4.84,5.93l-0.35-0.59l1.29-1.6l-1.71-2.9l-2.02,0.36l-0.33-0.55L157,66.05z
			 M156.58,66.67l-4.15,0.76l1.47,2.5L156.58,66.67z"/>
		<path class="st0" d="M159.4,70.33l0.34,0.76l-4.35,5.72l0.01,0.02l5.75-2.62l0.27,0.6l-6.54,2.98l-0.37-0.81l4.26-5.61l-0.01-0.02
			l-5.64,2.57l-0.27-0.6L159.4,70.33z"/>
		<path class="st0" d="M162.9,81.38c0.09-0.47-0.03-1.07-0.18-1.51c-0.55-1.64-2.11-2.15-3.8-1.59c-1.72,0.57-2.64,1.88-2.09,3.55
			c0.14,0.42,0.41,1.03,0.76,1.32l-0.57,0.23c-0.34-0.27-0.64-0.96-0.78-1.36c-0.01-0.05-0.03-0.09-0.03-0.13l-0.47,0
			c0.04,0.08,0.1,0.19,0.13,0.29c0.12,0.36,0,0.74-0.41,0.88c-0.58,0.19-0.87-0.36-1.01-0.77c-0.13-0.39-0.1-0.91-0.09-0.99
			l0.38-0.06c-0.05,0.15-0.12,0.58-0.01,0.9c0.09,0.27,0.27,0.43,0.52,0.35c0.22-0.07,0.32-0.26,0.25-0.47
			c-0.04-0.13-0.09-0.25-0.17-0.37l0.82-0.02c-0.44-1.83,0.59-3.33,2.56-3.99c2.07-0.69,3.94,0.06,4.59,2.02
			c0.12,0.37,0.31,1.15,0.23,1.54L162.9,81.38z"/>
		<path class="st0" d="M164.75,85.46l0.16,0.73l-6.46,4.13l-0.15-0.67l1.73-1.11l-0.72-3.29l-2.04-0.29l-0.14-0.63L164.75,85.46z
			 M164.16,85.93l-4.19-0.57l0.62,2.83L164.16,85.93z"/>
		<path class="st0" d="M165.61,90.06l0.1,0.65l-7.11,1.04l-0.1-0.65L165.61,90.06z"/>
		<path class="st0" d="M159.7,92.99c-0.23,0.41-0.35,0.89-0.29,1.51c0.07,0.82,0.58,1.46,1.6,1.37c1.41-0.12,1.31-3.19,3.19-3.35
			c1.15-0.1,1.95,0.77,2.05,1.95c0.03,0.32,0.02,0.85-0.12,1.33l-0.66-0.05c0.15-0.31,0.2-0.79,0.16-1.23
			c-0.06-0.69-0.43-1.41-1.36-1.33c-1.44,0.12-1.18,3.18-3.27,3.36c-1.45,0.12-2.12-0.98-2.21-2.01c-0.06-0.65,0.04-1.17,0.17-1.53
			L159.7,92.99z"/>
		<path class="st0" d="M164.56,102.13c0.07,1-0.7,1.88-1.69,1.95c-1,0.07-1.87-0.7-1.94-1.7c-0.07-1,0.69-1.87,1.69-1.93
			C163.61,100.38,164.49,101.13,164.56,102.13z"/>
	</g>
	<g>
		<path class="st0" d="M41.63,109.89l0.7,3.56l-0.61,0.12l-0.56-2.84l-2.51,0.5l0.53,2.69l-0.61,0.12l-0.53-2.7l-2.71,0.54
			l0.59,2.97l-0.61,0.12l-0.73-3.68L41.63,109.89z"/>
		<path class="st0" d="M42.67,114.87l0.27,0.88L38,121.22l0.01,0.02l6.05-1.87l0.21,0.7l-6.88,2.13l-0.29-0.94l4.84-5.37l-0.01-0.02
			l-5.93,1.83L35.8,117L42.67,114.87z"/>
		<path class="st0" d="M44.85,123.1l-0.86-2.01l0.57-0.24l2.01,4.69L46,125.79l-0.86-2.01l-6.04,2.58l-0.29-0.67L44.85,123.1z"/>
		<path class="st0" d="M47.01,126.39l0.91,1.68c0.63,1.16,0.56,2.17-0.6,2.8c-0.82,0.44-1.71,0.09-2.24-0.65l-0.02,0.01
			c0.22,0.56,0.01,0.82-0.31,1.25l-1.84,2.44l-0.38-0.71l1.63-2.1c0.61-0.81,0.49-1.11,0.15-1.72l-0.29-0.53l-2.98,1.62l-0.35-0.64
			L47.01,126.39z M44.56,128.55l0.37,0.68c0.41,0.75,1.16,1.47,2.04,0.99c1.03-0.56,0.69-1.35,0.21-2.24l-0.36-0.66L44.56,128.55z"
			/>
		<path class="st0" d="M49.85,131.45l2.02,3.02l-0.51,0.34l-1.61-2.41l-2.13,1.43l1.53,2.28l-0.51,0.34l-1.53-2.28l-2.3,1.54
			l1.68,2.51l-0.51,0.34l-2.09-3.12L49.85,131.45z"/>
		<path class="st0" d="M52.83,135.75l1.15,1.42c0.87,1.08,0.91,2.21-0.15,3.06c-1.04,0.84-2.24,0.47-3.07-0.56l-0.64-0.79
			l-2.42,1.95l-0.46-0.57L52.83,135.75z M50.6,138.49l0.32,0.4c0.69,0.86,1.44,1.59,2.45,0.77c0.7-0.57,0.77-1.31,0.19-2.03
			l-0.75-0.92L50.6,138.49z"/>
		<path class="st0" d="M56.2,139.81l1.33,1.37c0.92,0.94,1.13,1.94,0.18,2.86c-0.66,0.65-1.62,0.56-2.34-0.02l-0.01,0.02
			c0.36,0.48,0.23,0.78,0.05,1.29l-1.11,2.85l-0.56-0.58l0.99-2.47c0.37-0.95,0.17-1.2-0.32-1.7l-0.42-0.43l-2.43,2.37l-0.51-0.52
			L56.2,139.81z M54.43,142.56l0.54,0.56c0.6,0.62,1.52,1.1,2.23,0.4c0.84-0.82,0.29-1.49-0.41-2.21l-0.53-0.54L54.43,142.56z"/>
		<path class="st0" d="M60.31,143.88l0.55,0.49l-4.78,5.35l-0.55-0.49L60.31,143.88z"/>
		<path class="st0" d="M58.15,150.33c0.18,0.48,0.48,0.91,1.02,1.34c0.72,0.56,1.59,0.67,2.22-0.13c0.87-1.11-1.69-3.34-0.53-4.82
			c0.71-0.91,1.97-0.83,3-0.03c0.28,0.22,0.71,0.62,1,1.08l-0.49,0.44c-0.15-0.34-0.5-0.73-0.89-1.04c-0.6-0.47-1.45-0.75-2.02-0.02
			c-0.89,1.13,1.77,3.24,0.48,4.89c-0.9,1.14-2.26,0.8-3.16,0.1c-0.57-0.44-0.92-0.91-1.13-1.28L58.15,150.33z"/>
		<path class="st0" d="M66.35,148.7l3.04,1.97l-0.34,0.52l-2.43-1.58l-1.4,2.15l2.3,1.5l-0.34,0.52l-2.3-1.5l-1.51,2.32l2.53,1.65
			l-0.34,0.52l-3.15-2.04L66.35,148.7z"/>
		<path class="st0" d="M73.52,152.97l1.68,0.75c2.42,1.08,2.78,2.86,1.92,4.78c-1.06,2.38-3.1,2.57-5.34,1.57l-1.18-0.53
			L73.52,152.97z M71.51,159.28l0.55,0.25c1.92,0.85,3.5,0.66,4.4-1.36c0.89-2.01-0.04-3.22-1.55-3.9l-0.98-0.44L71.51,159.28z"/>
		<path class="st0" d="M83.61,161.76c-0.63,2.02-2.31,2.04-3.34,1.72c-1.03-0.32-2.41-1.29-1.79-3.31l1.38-4.46l0.7,0.22l-1.38,4.46
			c-0.35,1.12,0.04,2.12,1.27,2.5c1.23,0.38,2.11-0.23,2.46-1.35l1.38-4.46l0.7,0.22L83.61,161.76z"/>
		<path class="st0" d="M89.79,158.3l1.81,0.26c1.38,0.2,2.17,1,1.98,2.34c-0.19,1.33-1.32,1.87-2.63,1.68l-1.01-0.15l-0.44,3.08
			l-0.72-0.1L89.79,158.3z M90.02,161.82l0.5,0.07c1.09,0.16,2.14,0.18,2.32-1.1c0.13-0.9-0.32-1.48-1.25-1.61l-1.18-0.17
			L90.02,161.82z"/>
		<path class="st0" d="M97.16,159.08l0.83,0.03l2.65,7.3l-0.76-0.03l-0.72-1.96l-3.73-0.15l-0.87,1.89l-0.71-0.03L97.16,159.08z
			 M97.49,159.77l-1.77,3.89l3.21,0.13L97.49,159.77z"/>
		<path class="st0" d="M103.31,159.66l-2.18,0.13l-0.04-0.62l5.1-0.31l0.04,0.62l-2.18,0.13l0.4,6.56l-0.73,0.04L103.31,159.66z"/>
		<path class="st0" d="M107.12,158.74l1.89-0.29c1.3-0.2,2.23,0.21,2.43,1.51c0.14,0.92-0.49,1.64-1.37,1.89l0,0.02
			c0.6-0.02,0.77,0.27,1.08,0.71l1.67,2.56l-0.8,0.12l-1.43-2.24c-0.56-0.85-0.88-0.83-1.57-0.73l-0.6,0.09l0.52,3.35l-0.72,0.11
			L107.12,158.74z M108.33,161.77l0.76-0.12c0.85-0.13,1.77-0.6,1.62-1.59c-0.18-1.16-1.04-1.1-2.03-0.95l-0.74,0.12L108.33,161.77z
			"/>
		<path class="st0" d="M112.83,157.73l0.71-0.16l1.61,7.01l-0.71,0.16L112.83,157.73z"/>
		<path class="st0" d="M115.43,157.22l1.07-0.37l4.61,5.12l0.53-6.87l0.99-0.34l2.33,6.81l-0.69,0.24l-2.1-6.14l-0.02,0.01
			l-0.45,7.01l-0.59,0.2l-4.73-5.24l-0.02,0.01l2.1,6.14l-0.69,0.24L115.43,157.22z"/>
		<path class="st0" d="M126.63,152.67c1.99-1.01,3.73,0.1,4.59,1.84c0.98,1.97,0.67,3.82-1.23,4.79c-1.9,0.96-3.57,0.11-4.59-1.84
			C124.5,155.73,124.64,153.68,126.63,152.67z M126.05,157.13c0.69,1.36,2.1,2.41,3.65,1.62c1.55-0.79,1.54-2.55,0.85-3.9
			c-0.69-1.36-2.1-2.41-3.65-1.62C125.35,154.01,125.37,155.77,126.05,157.13z"/>
		<path class="st0" d="M130.73,150.53l0.62-0.39l3.78,6.11l-0.62,0.39L130.73,150.53z"/>
		<path class="st0" d="M132.86,149.22l0.74-0.55l6.78,2.85l0.02-0.01l-3.75-5.09l0.59-0.43l4.27,5.79l-0.79,0.59l-6.66-2.79
			l-0.02,0.01l3.68,4.99l-0.59,0.44L132.86,149.22z"/>
		<path class="st0" d="M138.5,144.89l2.68-2.44l0.42,0.46l-2.14,1.95l1.72,1.9l2.03-1.85l0.42,0.46l-2.03,1.85l1.86,2.05l2.23-2.04
			l0.42,0.46l-2.77,2.53L138.5,144.89z"/>
		<path class="st0" d="M151.76,141.42l-0.49,0.61l-7.32-2.37l0.49-0.6l6.53,2.22l-3.48-5.99l0.45-0.56L151.76,141.42z"/>
		<path class="st0" d="M148.38,133.95l0.42-0.6l5.91,4.1l-0.42,0.6L148.38,133.95z"/>
		<path class="st0" d="M157.34,133.28l-0.4,0.67l-7.59-1.27l0.39-0.67l6.79,1.23l-4.33-5.41l0.37-0.62L157.34,133.28z"/>
		<path class="st0" d="M153.85,124.4l0.34-0.75l7.75,0.25l-0.31,0.7l-2.08-0.06l-1.52,3.41l1.43,1.51l-0.29,0.65L153.85,124.4z
			 M154.61,124.35l2.96,3.09l1.31-2.93L154.61,124.35z"/>
		<path class="st0" d="M155.64,120.17l0.27-0.88l7.15-1.73l0.01-0.02l-6.03-1.87l0.22-0.7l6.86,2.12l-0.29,0.94l-7.01,1.71
			l-0.01,0.02l5.92,1.83l-0.22,0.7L155.64,120.17z"/>
		<path class="st0" d="M158.48,112.15l-0.43,2.14l-0.61-0.12l1-5l0.61,0.12l-0.43,2.14l6.44,1.28l-0.14,0.72L158.48,112.15z"/>
	</g>
	<path class="st0" d="M149.6,100.02c0-27.41-22.22-49.64-49.64-49.64c-27.41,0-49.63,22.22-49.63,49.64
		c0,27.41,22.22,49.64,49.63,49.64C127.38,149.66,149.6,127.43,149.6,100.02L149.6,100.02z M109.64,118.6l3.21,0l-17.2,30.89
		l-1.41-0.05c0,0-4.72-30.49-4.74-30.58c-0.02-0.12-0.03-0.26,0.17-0.26c0.08,0,2.05,0,2.99,0c0.44,0,0.55-0.33,0.58-0.46h0
		l5.49-28.86c0-0.02,0.01-0.04,0.01-0.07c0.11-0.64-0.44-0.71-0.55-0.71c-0.01,0-0.01,0-0.01,0c-2.89,0.02-13.75,0-13.84,0
		c-0.1,0-0.66-0.04-0.55-0.63c0.01-0.03,4.55-27.01,4.95-29.35c0.02-0.11,0.08-0.18,0.24-0.18c0.14,0,13.26,0,14.72,0
		c0.22,0,0.14,0.2,0.14,0.2l-0.53,1.85H92.09l-1.92,11.07c-0.02,0.22,0,0.69,0.67,0.73h9.64c0.06,0,0.04,0.07,0.04,0.05
		c0.01-0.03-0.38,1.88-0.38,1.88s-0.01,0.04-0.05,0.04h-9.84c-0.5,0.04-0.6,0.28-0.64,0.46L87.7,85.96h11.53
		c0.21,0,0.2,0.11,0.2,0.15c0,0.04-0.39,1.67-0.39,1.67c-0.08,0.54,0.32,0.69,0.53,0.72l2.92,0.01c8.58-0.45,11.64,3.67,11.7,7.79
		c0.07,4.31-3.33,8.62-8.34,8.83c-1.54,0.06-2.8-0.46-3.09-0.56c-0.02-0.01-0.1-0.54-0.1-0.54c10.47,1.17,13.36-14.9-0.37-13.03
		c-0.02-0.02-0.02-0.03-0.02-0.03l-5.38,27.75h-3.12c-0.56,0-0.55,0.36-0.53,0.5l3.58,22.9C96.83,142.12,109.64,118.69,109.64,118.6
		z M98.87,88.49L98.87,88.49L98.87,88.49L98.87,88.49z"/>
</g>
</svg>
